<svg width="16" height="16" viewBox="0 0 16 16" fill="none" xmlns="http://www.w3.org/2000/svg">
<path d="M4.66668 3.33332H15.3333V5.99999H14.6667V6.66666H10.6667C10.4899 6.66666 10.3203 6.73689 10.1953 6.86192C10.0702 6.98694 10 7.15651 10 7.33332V7.99999C10 8.35361 9.85953 8.69275 9.60948 8.9428C9.35944 9.19285 9.0203 9.33332 8.66668 9.33332H6.41334C6.16001 9.33332 5.92668 9.47999 5.81334 9.70666L4.18001 12.9667C4.06668 13.1933 3.84001 13.3333 3.58668 13.3333H1.33334C1.33334 13.3333 -0.666658 13.3333 2.00001 9.33332C2.00001 9.33332 4.00001 6.66666 1.33334 6.66666V3.33332H2.00001L2.33334 2.66666H4.33334L4.66668 3.33332ZM9.33334 7.99999V7.33332C9.33334 7.15651 9.2631 6.98694 9.13808 6.86192C9.01306 6.73689 8.84349 6.66666 8.66668 6.66666H8.00001C8.00001 6.66666 7.33334 7.33332 8.00001 7.99999C7.64639 7.99999 7.30725 7.85951 7.0572 7.60947C6.80715 7.35942 6.66668 7.02028 6.66668 6.66666C6.48986 6.66666 6.3203 6.73689 6.19527 6.86192C6.07025 6.98694 6.00001 7.15651 6.00001 7.33332V7.99999C6.00001 8.1768 6.07025 8.34637 6.19527 8.47139C6.3203 8.59642 6.48986 8.66666 6.66668 8.66666H8.66668C8.84349 8.66666 9.01306 8.59642 9.13808 8.47139C9.2631 8.34637 9.33334 8.1768 9.33334 7.99999Z" fill="#EF4444"/>
</svg>
