<svg width="16" height="16" viewBox="0 0 16 16" fill="none" xmlns="http://www.w3.org/2000/svg">
<path d="M10.6666 11.3333V12.6667H1.33331V11.3333C1.33331 11.3333 1.33331 8.66667 5.99998 8.66667C10.6666 8.66667 10.6666 11.3333 10.6666 11.3333ZM8.33331 5C8.33331 4.53851 8.19647 4.08738 7.94008 3.70367C7.68369 3.31995 7.31927 3.02088 6.89291 2.84428C6.46655 2.66768 5.99739 2.62147 5.54477 2.7115C5.09215 2.80153 4.67639 3.02376 4.35006 3.35008C4.02374 3.67641 3.80151 4.09217 3.71148 4.54479C3.62145 4.99741 3.66766 5.46657 3.84426 5.89293C4.02087 6.31929 4.31993 6.68371 4.70365 6.94009C5.08736 7.19649 5.53849 7.33333 5.99998 7.33333C6.61882 7.33333 7.21231 7.0875 7.6499 6.64991C8.08748 6.21233 8.33331 5.61884 8.33331 5ZM10.6266 8.66667C11.0365 8.98383 11.3718 9.38695 11.6091 9.84767C11.8464 10.3084 11.9798 10.8155 12 11.3333V12.6667H14.6666V11.3333C14.6666 11.3333 14.6666 8.91333 10.6266 8.66667ZM9.99998 2.66667C9.54117 2.66453 9.09251 2.80169 8.71331 3.06C9.11827 3.62582 9.33602 4.30419 9.33602 5C9.33602 5.69581 9.11827 6.37417 8.71331 6.94C9.09251 7.19831 9.54117 7.33547 9.99998 7.33333C10.6188 7.33333 11.2123 7.0875 11.6499 6.64991C12.0875 6.21233 12.3333 5.61884 12.3333 5C12.3333 4.38116 12.0875 3.78767 11.6499 3.35008C11.2123 2.9125 10.6188 2.66667 9.99998 2.66667Z" fill="white"/>
</svg>
