<svg width="10" height="10" viewBox="0 0 10 10" fill="none" xmlns="http://www.w3.org/2000/svg">
<path d="M4.99996 5.41664C5.23008 5.41664 5.41663 5.23009 5.41663 4.99997C5.41663 4.76985 5.23008 4.5833 4.99996 4.5833C4.76984 4.5833 4.58329 4.76985 4.58329 4.99997C4.58329 5.23009 4.76984 5.41664 4.99996 5.41664Z" fill="#0C0A09"/>
<path d="M4.99996 2.49997C5.23008 2.49997 5.41663 2.31343 5.41663 2.08331C5.41663 1.85319 5.23008 1.66664 4.99996 1.66664C4.76984 1.66664 4.58329 1.85319 4.58329 2.08331C4.58329 2.31343 4.76984 2.49997 4.99996 2.49997Z" fill="#0C0A09"/>
<path d="M4.99996 8.3333C5.23008 8.3333 5.41663 8.14675 5.41663 7.91664C5.41663 7.68652 5.23008 7.49997 4.99996 7.49997C4.76984 7.49997 4.58329 7.68652 4.58329 7.91664C4.58329 8.14675 4.76984 8.3333 4.99996 8.3333Z" fill="#0C0A09"/>
<path d="M4.99996 5.41664C5.23008 5.41664 5.41663 5.23009 5.41663 4.99997C5.41663 4.76985 5.23008 4.5833 4.99996 4.5833C4.76984 4.5833 4.58329 4.76985 4.58329 4.99997C4.58329 5.23009 4.76984 5.41664 4.99996 5.41664Z" stroke="white" stroke-width="0.8" stroke-linecap="round" stroke-linejoin="round"/>
<path d="M4.99996 2.49997C5.23008 2.49997 5.41663 2.31343 5.41663 2.08331C5.41663 1.85319 5.23008 1.66664 4.99996 1.66664C4.76984 1.66664 4.58329 1.85319 4.58329 2.08331C4.58329 2.31343 4.76984 2.49997 4.99996 2.49997Z" stroke="white" stroke-width="0.8" stroke-linecap="round" stroke-linejoin="round"/>
<path d="M4.99996 8.3333C5.23008 8.3333 5.41663 8.14675 5.41663 7.91664C5.41663 7.68652 5.23008 7.49997 4.99996 7.49997C4.76984 7.49997 4.58329 7.68652 4.58329 7.91664C4.58329 8.14675 4.76984 8.3333 4.99996 8.3333Z" stroke="white" stroke-width="0.8" stroke-linecap="round" stroke-linejoin="round"/>
</svg>
