<svg width="16" height="16" viewBox="0 0 16 16" fill="none" xmlns="http://www.w3.org/2000/svg">
<path d="M3.33331 3.33333V12.6667C3.33331 12.8435 3.40355 13.013 3.52858 13.1381C3.6536 13.2631 3.82317 13.3333 3.99998 13.3333H5.99998V12H4.66665V3.99999H5.99998V2.66666H3.99998C3.82317 2.66666 3.6536 2.7369 3.52858 2.86192C3.40355 2.98695 3.33331 3.15652 3.33331 3.33333ZM12.828 2.68666L7.49465 1.35333C7.39639 1.32882 7.29384 1.32702 7.19479 1.34806C7.09574 1.3691 7.00278 1.41243 6.92297 1.47476C6.84316 1.5371 6.7786 1.61679 6.73418 1.70779C6.68977 1.7988 6.66667 1.89873 6.66665 1.99999V14C6.66641 14.1013 6.68934 14.2014 6.73367 14.2925C6.77801 14.3837 6.84257 14.4635 6.92245 14.5259C7.00233 14.5883 7.0954 14.6316 7.19457 14.6525C7.29373 14.6734 7.39637 14.6714 7.49465 14.6467L12.828 13.3133C12.9723 13.2773 13.1004 13.1941 13.1919 13.077C13.2835 12.9598 13.3333 12.8154 13.3333 12.6667V3.33333C13.3333 3.18462 13.2835 3.04019 13.1919 2.92302C13.1004 2.80584 12.9723 2.72265 12.828 2.68666ZM9.99998 8.12533C9.9923 8.29698 9.91871 8.45906 9.79453 8.57781C9.67034 8.69656 9.50514 8.76284 9.33331 8.76284C9.16149 8.76284 8.99628 8.69656 8.8721 8.57781C8.74792 8.45906 8.67432 8.29698 8.66665 8.12533V7.87399C8.66673 7.69718 8.73706 7.52765 8.86214 7.40269C8.98723 7.27772 9.15684 7.20757 9.33365 7.20766C9.51046 7.20775 9.67999 7.27807 9.80495 7.40316C9.92992 7.52824 10.0001 7.69785 9.99998 7.87466V8.12533Z" fill="#F97316"/>
</svg>
