<svg width="36" height="36" viewBox="0 0 36 36" fill="none" xmlns="http://www.w3.org/2000/svg">
<path d="M15.3333 24V12L23.3333 18M18 4.66669C16.249 4.66669 14.5152 5.01156 12.8976 5.68163C11.2799 6.35169 9.81003 7.33382 8.57191 8.57193C6.07143 11.0724 4.66667 14.4638 4.66667 18C4.66667 21.5362 6.07143 24.9276 8.57191 27.4281C9.81003 28.6662 11.2799 29.6484 12.8976 30.3184C14.5152 30.9885 16.249 31.3334 18 31.3334C21.5362 31.3334 24.9276 29.9286 27.4281 27.4281C29.9286 24.9276 31.3333 21.5362 31.3333 18C31.3333 16.2491 30.9885 14.5152 30.3184 12.8976C29.6483 11.2799 28.6662 9.81004 27.4281 8.57193C26.19 7.33382 24.7201 6.35169 23.1024 5.68163C21.4848 5.01156 19.751 4.66669 18 4.66669Z" fill="white"/>
</svg>
