<svg width="12" height="11" viewBox="0 0 12 11" fill="none" xmlns="http://www.w3.org/2000/svg">
<path d="M6.00549 3.82299V6.00323M6.00549 8.18346H6.01094M11.3089 8.72851L6.9484 1.09769C6.85332 0.929924 6.71545 0.790381 6.54883 0.693295C6.38222 0.59621 6.19284 0.545058 6 0.545058C5.80716 0.545058 5.61778 0.59621 5.45117 0.693295C5.28455 0.790381 5.14668 0.929924 5.0516 1.09769L0.691132 8.72851C0.595028 8.89495 0.544635 9.08383 0.545061 9.27602C0.545487 9.46822 0.596716 9.65688 0.693555 9.82289C0.790395 9.9889 0.929403 10.1264 1.09649 10.2213C1.26358 10.3163 1.4528 10.3654 1.64498 10.3637H10.3659C10.5572 10.3635 10.745 10.313 10.9106 10.2172C11.0761 10.1215 11.2136 9.98383 11.3091 9.81814C11.4047 9.65246 11.455 9.46455 11.4549 9.27329C11.4549 9.08203 11.4045 8.89414 11.3089 8.72851Z" stroke="#F87171" stroke-linecap="round" stroke-linejoin="round"/>
</svg>
