<svg width="10" height="10" viewBox="0 0 10 10" fill="none" xmlns="http://www.w3.org/2000/svg">
<path d="M8.33902 2.73112L2.20945 0.042658C2.14878 0.0159433 2.08339 0.00148107 2.01706 0.000107915C1.95074 -0.00126524 1.8848 0.0104779 1.82306 0.0346581C1.76137 0.0589493 1.70513 0.0951859 1.65758 0.141272C1.61004 0.187358 1.57213 0.24238 1.54607 0.303154L0.0406464 3.8031C-0.011776 3.92496 -0.0134714 4.06259 0.0359333 4.1857C0.0853379 4.30881 0.181797 4.40733 0.304095 4.45959L3.79516 5.95006L3.17292 7.50004H1.00361V6.00006H0V10H1.00361V8.50002H3.17292C3.58591 8.50002 3.95173 8.25303 4.10428 7.87103L4.71748 6.34406L6.43316 7.07655C6.55492 7.12868 6.69243 7.13071 6.81568 7.08218C6.93893 7.03366 7.03792 6.93853 7.09103 6.81755L8.59645 3.3891C8.64971 3.26782 8.65252 3.13043 8.60426 3.00708C8.556 2.88373 8.46062 2.78449 8.33902 2.73112ZM8.99739 7.18604L8.06503 6.81505L9.06764 4.31509L10 4.68558L8.99739 7.18604Z" fill="white"/>
</svg>
