<svg width="16" height="16" viewBox="0 0 16 16" fill="none" xmlns="http://www.w3.org/2000/svg">
<path d="M7.33333 11.3333H8.66667L8.86667 10.3333C9 10.2778 9.12511 10.2196 9.242 10.1587C9.35889 10.0978 9.47822 10.0227 9.6 9.93333L10.5667 10.2333L11.2333 9.1L10.4667 8.43333C10.4889 8.27778 10.5 8.13333 10.5 8C10.5 7.86667 10.4889 7.72222 10.4667 7.56667L11.2333 6.9L10.5667 5.76667L9.6 6.06667C9.47778 5.97778 9.35844 5.90267 9.242 5.84133C9.12556 5.78 9.00044 5.72178 8.86667 5.66667L8.66667 4.66667H7.33333L7.13333 5.66667C7 5.72222 6.87511 5.78067 6.75867 5.842C6.64222 5.90333 6.52267 5.97822 6.4 6.06667L5.43333 5.76667L4.76667 6.9L5.53333 7.56667C5.51111 7.72222 5.5 7.86667 5.5 8C5.5 8.13333 5.51111 8.27778 5.53333 8.43333L4.76667 9.1L5.43333 10.2333L6.4 9.93333C6.52222 10.0222 6.64178 10.0973 6.75867 10.1587C6.87556 10.22 7.00044 10.2782 7.13333 10.3333L7.33333 11.3333ZM8 9.33333C7.63333 9.33333 7.31956 9.20289 7.05867 8.942C6.79778 8.68111 6.66711 8.36711 6.66667 8C6.66622 7.63289 6.79689 7.31911 7.05867 7.05867C7.32044 6.79822 7.63422 6.66756 8 6.66667C8.36578 6.66578 8.67978 6.79644 8.942 7.05867C9.20422 7.32089 9.33467 7.63467 9.33333 8C9.332 8.36533 9.20156 8.67933 8.942 8.942C8.68244 9.20467 8.36844 9.33511 8 9.33333ZM3.33333 14C2.96667 14 2.65289 13.8696 2.392 13.6087C2.13111 13.3478 2.00044 13.0338 2 12.6667V3.33333C2 2.96667 2.13067 2.65289 2.392 2.392C2.65333 2.13111 2.96711 2.00044 3.33333 2H12.6667C13.0333 2 13.3473 2.13067 13.6087 2.392C13.87 2.65333 14.0004 2.96711 14 3.33333V12.6667C14 13.0333 13.8696 13.3473 13.6087 13.6087C13.3478 13.87 13.0338 14.0004 12.6667 14H3.33333Z" fill="white"/>
</svg>
