<svg width="16" height="16" viewBox="0 0 16 16" fill="none" xmlns="http://www.w3.org/2000/svg">
<path d="M8.57732 2L14.928 13C14.9865 13.1013 15.0173 13.2163 15.0173 13.3333C15.0173 13.4504 14.9865 13.5653 14.928 13.6667C14.8695 13.768 14.7853 13.8522 14.684 13.9107C14.5826 13.9692 14.4677 14 14.3506 14H1.64932C1.53229 14 1.41733 13.9692 1.31599 13.9107C1.21464 13.8522 1.13049 13.768 1.07198 13.6667C1.01347 13.5653 0.982665 13.4504 0.982666 13.3333C0.982667 13.2163 1.01347 13.1013 1.07198 13L7.42265 2C7.48116 1.89866 7.56532 1.81451 7.66666 1.756C7.76801 1.6975 7.88296 1.66669 7.99998 1.66669C8.117 1.66669 8.23196 1.6975 8.3333 1.756C8.43464 1.81451 8.5188 1.89866 8.57732 2ZM7.33332 10.6667V12H8.66665V10.6667H7.33332ZM7.33332 6V9.33333H8.66665V6H7.33332Z" fill="white"/>
</svg>
