<svg width="9" height="10" viewBox="0 0 9 10" fill="none" xmlns="http://www.w3.org/2000/svg">
<path d="M4.76685 9.74512L4.7619 9.74603L4.72995 9.76208L4.72095 9.76391L4.71465 9.76208L4.6827 9.74603C4.6779 9.74451 4.6743 9.74527 4.6719 9.74833L4.6701 9.75291L4.66245 9.94911L4.6647 9.95828L4.6692 9.96424L4.716 9.99817L4.72275 10L4.72815 9.99817L4.77495 9.96424L4.78035 9.95691L4.78215 9.94911L4.7745 9.75337C4.7733 9.74848 4.77075 9.74573 4.76685 9.74512ZM4.8861 9.69332L4.88025 9.69423L4.797 9.73687L4.7925 9.74145L4.79115 9.74649L4.79925 9.94361L4.8015 9.94911L4.8051 9.95232L4.89555 9.99496C4.90125 9.99649 4.9056 9.99526 4.9086 9.99129L4.9104 9.98487L4.8951 9.7034C4.8936 9.6979 4.8906 9.69454 4.8861 9.69332ZM4.56435 9.69423C4.56237 9.69301 4.56 9.69261 4.55773 9.69312C4.55547 9.69364 4.55349 9.69502 4.5522 9.69698L4.5495 9.7034L4.5342 9.98487C4.5345 9.99037 4.53705 9.99404 4.54185 9.99587L4.5486 9.99496L4.63905 9.95232L4.64355 9.94866L4.64535 9.94361L4.653 9.74649L4.65165 9.74099L4.64715 9.73641L4.56435 9.69423Z" fill="white"/>
<path d="M4.5 0C6.98535 0 9 2.05235 9 4.58421C9 7.11607 6.98535 9.16842 4.5 9.16842C2.01465 9.16842 0 7.11607 0 4.58421C0 2.05235 2.01465 0 4.5 0ZM4.5 0.916842C3.54522 0.916842 2.62955 1.30322 1.95442 1.99099C1.27928 2.67876 0.9 3.61157 0.9 4.58421C0.9 5.55686 1.27928 6.48967 1.95442 7.17743C2.62955 7.8652 3.54522 8.25158 4.5 8.25158C5.45478 8.25158 6.37045 7.8652 7.04558 7.17743C7.72072 6.48967 8.1 5.55686 8.1 4.58421C8.1 3.61157 7.72072 2.67876 7.04558 1.99099C6.37045 1.30322 5.45478 0.916842 4.5 0.916842ZM4.5 1.83368C4.61022 1.8337 4.7166 1.87492 4.79897 1.94953C4.88133 2.02415 4.93395 2.12696 4.94685 2.23847L4.95 2.29211V4.39443L6.16815 5.63537C6.24886 5.71787 6.29571 5.82857 6.2992 5.94498C6.30269 6.0614 6.26255 6.1748 6.18694 6.26216C6.11132 6.34952 6.0059 6.40428 5.89209 6.41533C5.77827 6.42637 5.6646 6.39287 5.57415 6.32163L5.53185 6.28358L4.18185 4.90832C4.11191 4.83701 4.06699 4.7442 4.05405 4.64427L4.05 4.58421V2.29211C4.05 2.17053 4.09741 2.05392 4.1818 1.96795C4.26619 1.88198 4.38065 1.83368 4.5 1.83368Z" fill="white"/>
</svg>
