<svg width="16" height="16" viewBox="0 0 16 16" fill="none" xmlns="http://www.w3.org/2000/svg">
<path d="M12.412 4.97467L4.26865 1.39C4.18803 1.35438 4.10116 1.3351 4.01305 1.33327C3.92494 1.33144 3.83734 1.34709 3.75531 1.37933C3.67336 1.41172 3.59863 1.46004 3.53547 1.52149C3.4723 1.58294 3.42195 1.6563 3.38731 1.73733L1.38731 6.404C1.31767 6.56649 1.31542 6.74999 1.38105 6.91414C1.44669 7.0783 1.57484 7.20966 1.73731 7.27933L6.37531 9.26667L5.54865 11.3333H2.66665V9.33333H1.33331V14.6667H2.66665V12.6667H5.54865C6.09731 12.6667 6.58331 12.3373 6.78598 11.828L7.60065 9.792L9.87998 10.7687C10.0417 10.8382 10.2244 10.8409 10.3882 10.7762C10.5519 10.7115 10.6834 10.5846 10.754 10.4233L12.754 5.852C12.8247 5.69028 12.8285 5.5071 12.7644 5.34263C12.7002 5.17816 12.5735 5.04583 12.412 4.97467ZM13.2866 10.9147L12.048 10.42L13.38 7.08667L14.6186 7.58067L13.2866 10.9147Z" fill="white"/>
</svg>
